#!OML:ASF F:\VICON\USERDATA\INSTALL\rory3\rory3.ASF
:FULLY-SPECIFIED
:DEGREES
71
root 0.1709547836385679 17.473410028013916 41.71685235094607 2.537481123838361 4.756278873584136 1.3079013671220086
lfemur 2.235864750222385 -3.9181766688162747 -28.03919785619073
ltibia 40.47532683049693
lfoot -17.015584004862973 2.758703137432298
ltoes -18.66797137360358
rfemur -46.191802362655665 -6.2737201979063 21.27672818198515
rtibia 96.85542217347918
rfoot 5.940295698562197 -2.2790996319351198
rtoes 5.567937697156133
lowerback nan -1.1900028203621726 -3.1101601162125165
upperback -0.9675315214903324 -1.9242545185028481 0.6663522396540897
thorax -9.695589660648471 -0.6910098262451007 3.6116247588266015
lowerneck -21.709290789567596 -2.995424003063651 -1.8631255243806155
upperneck 13.808204176920034 -4.107419366749785 3.1647717102511566
head 7.921398779818327 -1.6472982231663769 0.857931097100717
lclavicle -1.564957504262261e-15 8.1437832948013e-16
lhumerus -39.743773625818605 -19.03450734253932 97.54756250334496
lradius 112.92939172099989
lwrist 35.62960697371431
lhand -25.01937296140202 2.174367238660836
lfingers nan
lthumb 1.4515318982621956 31.864042100438677
rclavicle -1.6518153268396587e-15 1.3362538847532018e-15
rhumerus -57.48130204342566 6.980102703765481 -99.8101299527693
rradius 109.19855806473579
rwrist -11.23710618893697
rhand -15.78066244276658 nan
rfingers nan
rthumb 9.929115620670618 9.461497564229376
72
root 0.20396383033407808 17.632645420318262 42.04668351643135 2.761804521432622 3.4488053291810985 0.8240783286214883
lfemur 5.782764720934209 -3.2039951286557766 -27.50548930378557
ltibia 38.3168348462097
lfoot -12.070264951644232 0.49118673822042513
ltoes -26.588926198885147
rfemur -47.96728356629233 -4.401501187550702 22.425276741138287
rtibia 89.7311406862397
rfoot 4.290266333563329 -2.8498543264036775
rtoes 4.67594824644948
lowerback nan -1.434364955759584 -2.99397730371399
upperback -1.3117577637000883 -2.170230122068563 1.1952822502820477
thorax -9.633434047385586 -0.8026657180717928 4.088583671035161
lowerneck -21.307941294102953 -2.7602086576778246 -2.0214365445927345
upperneck 14.264422291395432 -3.70685016566026 3.044354106568343
head 8.01769356882931 -1.4687314239590332 0.8617405193854711
lclavicle -5.4173894042475975e-15 -3.5194968503729118e-15
lhumerus -39.656466427356406 -19.3936797649501 97.51003507151162
lradius 113.51906826053344
lwrist 35.549028180250176
lhand -24.830696410469773 2.312667393373968
lfingers nan
lthumb 1.6965057241229144 32.0480491828772
rclavicle -5.203390210389857e-15 -3.1285043027787498e-15
rhumerus -58.28969616985846 6.727894438790287 -99.41932481037298
rradius 109.81382465695086
rwrist -11.520643662853185
rhand -15.730995090628964 nan
rfingers nan
rthumb 10.12187595449921 9.547347566035352
73
root 0.26881526201719563 17.78223907339284 41.981890506290824 2.9668994284557386 2.171141419322097 0.3101532033707479
lfemur 8.850292725014656 -2.6530696876421054 -26.957791662760496
ltibia 35.89424290913096
lfoot -5.440049117316859 -3.157470440070095
ltoes -29.65477109057477
rfemur -48.65869292583479 -2.5925637812044005 23.478182807580495
rtibia 81.46865973144003
rfoot 3.0184221644874274 -3.385149697411699
rtoes 3.266576101857285
lowerback nan -1.612891591971136 -2.721157850437998
upperback -1.6789928643662104 -2.281390152650248 1.7469528353717787
thorax -9.571072182876472 -0.8600081603988897 4.467390800624485
lowerneck -20.82142696091389 -2.560688723343781 -2.1728124801966255
upperneck 14.749897542212421 -3.3523258810976353 2.883172801582886
head 8.098293337201719 -1.3227572276958213 0.8476622089936025
lclavicle -5.110304860641943e-15 -2.094737354187107e-15
lhumerus -39.697529192457246 -19.850054443369462 97.5421618467839
lradius 113.84134627224563
lwrist 35.2176677202076
lhand -24.741313455315385 2.024763971292172
lfingers nan
lthumb 1.7774001892593163 31.709238048344194
rclavicle -5.103447612284191e-15 -1.825792847413762e-15
rhumerus -58.96130857843495 6.47532350190405 -98.96631178672274
rradius 110.30558375544273
rwrist -11.55818929042527
rhand -15.67355343540424 nan
rfingers nan
rthumb 10.28095519282101 9.619784364777521
74
root 0.330572269795408 17.92517797189586 42.3947493701557 3.2956458438722227 1.1074936002697722 -0.14254540357635825
lfemur 11.235585832158469 -2.5184916837779343 -26.58783895216848
ltibia 33.60837020579804
lfoot 2.2148923570427783 -7.06253816090679
ltoes -29.746558033438227
rfemur -48.562769104722236 -1.0940740015755002 24.32937021679945
rtibia 72.54400555483423
rfoot 2.2972988289506784 -3.401455123928274
rtoes 1.0428130216135645
lowerback nan -1.7768828023010106 -2.3968231472670816
upperback -2.074171682575236 -2.3640620964442984 2.2683140683748144
thorax -9.539581917642424 -0.9098936830826626 4.710807342514309
lowerneck -20.382280953962347 -2.406655008154213 -2.2861115859544436
upperneck 15.225979045434347 -3.057898493381679 2.691700196741745
head 8.170188914690419 -1.2110340155659016 0.8129196896062731
lclavicle -3.915494176976957e-15 -2.1104936776138104e-16
lhumerus -39.782281412774395 -20.348008224062188 97.63533202748981
lradius 113.87880512508357
lwrist 35.104910986167035
lhand -24.63683969027325 2.0807804135240846
lfingers nan
lthumb 1.9057613244598564 31.732323393055438
rclavicle -4.4989497246831464e-15 -3.389823828248965e-16
rhumerus -59.48990495733976 6.190585977392516 -98.4665641370623
rradius 110.6478643818426
rwrist -11.381228017051354
rhand -15.675645468039956 nan
rfingers nan
rthumb 10.38500061182378 9.664666143700769
75
root 0.4232872862719911 18.057312105153077 43.34330704155825 3.5990402479644326 0.5309576241644359 -0.3163230093000804
lfemur 12.96918745493583 -2.9376223792026637 -26.687361317302987
ltibia 32.07141235453557
lfoot 9.238500204997326 -10.20465872992705
ltoes -31.115702187705814
rfemur -47.95617202455341 -0.33383441590685603 24.799351109523776
rtibia 63.52777872096985
rfoot 2.1326112239217956 -2.639490963068266
rtoes -2.020461820354168
lowerback nan -1.9702628682093715 -2.1411935738253964
upperback -2.413043218275756 -2.4985804350356196 2.6566776696883414
thorax -9.528550159583405 -0.9788446145172657 4.880457609826671
lowerneck -20.139499192022466 -2.3271573258033107 -2.347304707338358
upperneck 15.636254757471011 -2.878731556763948 2.502646400288059
head 8.246119978824094 -1.149947609523872 0.7613037793690611
lclavicle -4.670871613871053e-15 -1.256270477927339e-15
lhumerus -39.85070568405061 -20.826229338008993 97.77158422208201
lradius 113.62578361909975
lwrist 35.02396412881978
lhand -24.640771209252822 1.8243773011598121
lfingers nan
lthumb 1.7885021633857883 31.38645520206023
rclavicle -5.055276714490919e-15 -1.4206696029162945e-15
rhumerus -59.88463197660133 5.882179210887293 -97.93876908687638
rradius 110.84805785111163
rwrist -11.049121476826084
rhand -15.644942701560645 nan
rfingers nan
rthumb 10.505499883770998 9.748339928791076
76
root 0.4957676543000603 18.15249543594254 44.02919720602971 3.8327800461983004 0.31878711773686863 -0.201799393847919
lfemur 13.969192499981643 -3.656393976245174 -27.093588850430812
ltibia 31.906617048614237
lfoot 14.210070178030588 -12.01625980901493
ltoes -27.912747141585157
rfemur -46.87261347596296 -0.17073352971894162 24.978781559431503
rtibia 54.97761919179876
rfoot 2.387666222485888 -1.3508865958459984
rtoes -5.201266772960031
lowerback nan -2.164484255441003 -2.0953221361810304
upperback -2.6276937055722556 -2.697047351242169 2.849314546655669
thorax -9.527988965321931 -1.0726036677989077 5.025086712617286
lowerneck -20.049317086755476 -2.2786158181681486 -2.353940448258866
upperneck 15.910035067407934 -2.759322692491057 2.3430439400041783
head 8.302386891741888 -1.1122332597056714 0.7105668499044341
lclavicle -5.567824246291149e-15 -2.645989059281766e-15
lhumerus -39.82225847255233 -21.18699258276221 97.94775425004738
lradius 113.06984610328587
lwrist 35.056655384102115
lhand -24.645735339418106 1.797685371561649
lfingers nan
lthumb 1.8062330568513414 31.5783083643671
rclavicle -5.585018454832109e-15 -2.7368098200170315e-15
rhumerus -60.165296982333956 5.540404994602708 -97.41810308053236
rradius 110.93819866747099
rwrist -10.613285513255798
rhand -15.651551462033781 nan
rfingers nan
rthumb 10.517918967456072 9.781514879915656
77
root 0.5607395650415724 18.221997698722813 45.28466420080105 4.01270284497852 0.2850562637223649 0.05182193555011061
lfemur 14.224700072997605 -4.376017598894637 -27.57368212606277
ltibia 33.5125852807959
lfoot 16.362041426397663 -12.688889350463379
ltoes -23.268562112182696
rfemur -45.60529997686291 -0.35026977294218287 25.09790418801998
rtibia 47.44011008089319
rfoot 2.7052324045360123 -0.40100788217954353
rtoes -7.720193794742652
lowerback nan -2.324430196002489 -2.17499426534385
upperback -2.6423566001412775 -2.914651524289974 2.8565276470119283
thorax -9.461648225299278 -1.1695952742758928 5.1937704579723745
lowerneck -20.17153316261717 -2.3187361706295766 -2.3803219687698576
upperneck 15.992707516786798 -2.782309483273132 2.2646657179523393
head 8.339517985524127 -1.1291176646474537 0.6761906892985193
lclavicle -5.949350069002975e-15 -3.4231306370298767e-15
lhumerus -39.69005222174833 -21.35825609733917 98.13454575932705
lradius 112.2311367325894
lwrist 35.02961389565048
lhand -24.673762795073046 1.6851630157560682
lfingers nan
lthumb 1.7321670737115717 31.461909971253633
rclavicle -5.6847206293028265e-15 -3.3827676223404876e-15
rhumerus -60.29850144968025 5.165175701377986 -96.90524012423111
rradius 110.93822292986135
rwrist -10.150300947440213
rhand -15.602617748837533 nan
rfingers nan
rthumb 10.493065080393066 9.793499984590431
78
root 0.6269345168640688 18.264998056444814 46.3124502594137 3.9411394374700586 0.6045633406575024 0.48273700767951544
lfemur 13.955542675215773 -5.073519541776276 -28.098654443760623
ltibia 36.72892338772648
lfoot 16.563230725655735 -12.390309825403154
ltoes -21.063271119186716
rfemur -44.04614783710588 -1.0977092933233779 25.126516160650905
rtibia 41.401360045112185
rfoot 2.792868287666166 -0.7394424133607123
rtoes -10.178788833122201
lowerback nan -2.488740268847917 -2.345347649997895
upperback -2.4841834604808817 -3.1426170136517584 2.7531039388849496
thorax -9.30481680771203 -1.2694826289560766 5.326892330283148
lowerneck -20.378609055450447 -2.3901675120683166 -2.410686498628391
upperneck 15.871700583803412 -2.8707333325906768 2.2432611753339886
head 8.325374235337595 -1.1724796971108584 0.6591482957489482
lclavicle -5.562758636685226e-15 -3.109622456734067e-15
lhumerus -39.50067767306821 -21.317550461294953 98.2975038178253
lradius 111.114641728711
lwrist 35.092099088769935
lhand -24.688177866026482 1.6961924609111838
lfingers nan
lthumb 1.7944572129722514 31.6085358425244
rclavicle -5.022272761424933e-15 -2.8594932640763765e-15
rhumerus -60.260710577951286 4.757825411959795 -96.38504331759258
rradius 110.86110262729035
rwrist -9.744117777675815
rhand -15.613676734996599 nan
rfingers nan
rthumb 10.45064650384715 9.81417499376914
